<mxfile host="app.diagrams.net" modified="2023-06-14T07:43:41.173Z" agent="Mozilla/5.0 (Macintosh; Intel Mac OS X 10_15_7) AppleWebKit/537.36 (KHTML, like Gecko) Chrome/109.0.0.0 Safari/537.36" etag="SdCBjpUbDXFdkh2SABp3" version="21.2.9" type="github">
  <diagram id="rYdwiMb5jvszhZctyrXV" name="第 1 页">
    <mxGraphModel dx="1272" dy="757" grid="0" gridSize="10" guides="1" tooltips="1" connect="1" arrows="1" fold="1" page="1" pageScale="1" pageWidth="1920" pageHeight="1200" math="0" shadow="0">
      <root>
        <mxCell id="0" />
        <mxCell id="1" parent="0" />
        <mxCell id="fc0Et_haitifpb5bSG0c-15" value="" style="rounded=0;whiteSpace=wrap;html=1;fillColor=none;dashed=1;dashPattern=1 1;" parent="1" vertex="1">
          <mxGeometry x="523" y="49" width="777" height="872" as="geometry" />
        </mxCell>
        <mxCell id="fc0Et_haitifpb5bSG0c-1" value="" style="rounded=1;whiteSpace=wrap;html=1;dashed=1;dashPattern=1 1;" parent="1" vertex="1">
          <mxGeometry x="621" y="365" width="549" height="400" as="geometry" />
        </mxCell>
        <mxCell id="QxSuwZqqmujjziNGnTNI-38" value="" style="rounded=1;whiteSpace=wrap;html=1;fillColor=none;dashed=1;dashPattern=1 1;" parent="1" vertex="1">
          <mxGeometry x="1000" y="392" width="122" height="161" as="geometry" />
        </mxCell>
        <mxCell id="fc0Et_haitifpb5bSG0c-16" value="K8s集群" style="text;html=1;strokeColor=none;fillColor=none;align=center;verticalAlign=middle;whiteSpace=wrap;rounded=0;dashed=1;" parent="1" vertex="1">
          <mxGeometry x="1237" y="49" width="60" height="30" as="geometry" />
        </mxCell>
        <mxCell id="fc0Et_haitifpb5bSG0c-70" value="2 服务发现：&lt;br&gt;客户端请求获取redis集群拓扑" style="text;html=1;strokeColor=none;fillColor=none;align=center;verticalAlign=middle;whiteSpace=wrap;rounded=0;" parent="1" vertex="1">
          <mxGeometry x="460" y="2123" width="86" height="40" as="geometry" />
        </mxCell>
        <mxCell id="QxSuwZqqmujjziNGnTNI-69" style="edgeStyle=orthogonalEdgeStyle;rounded=0;orthogonalLoop=1;jettySize=auto;html=1;exitX=0.484;exitY=-0.003;exitDx=0;exitDy=0;dashed=1;exitPerimeter=0;" parent="1" source="YecgM4xgUUCfINCVM_Nl-21" target="CZOD9MttlhJFFi8Qf4Fr-8" edge="1">
          <mxGeometry relative="1" as="geometry">
            <Array as="points">
              <mxPoint x="891" y="779" />
              <mxPoint x="715" y="779" />
            </Array>
          </mxGeometry>
        </mxCell>
        <mxCell id="QxSuwZqqmujjziNGnTNI-72" style="edgeStyle=orthogonalEdgeStyle;rounded=0;orthogonalLoop=1;jettySize=auto;html=1;dashed=1;" parent="1" edge="1">
          <mxGeometry relative="1" as="geometry">
            <Array as="points">
              <mxPoint x="891" y="844" />
            </Array>
            <mxPoint x="891" y="844" as="sourcePoint" />
            <mxPoint x="891" y="728" as="targetPoint" />
          </mxGeometry>
        </mxCell>
        <mxCell id="QxSuwZqqmujjziNGnTNI-73" style="edgeStyle=orthogonalEdgeStyle;rounded=0;orthogonalLoop=1;jettySize=auto;html=1;exitX=0.482;exitY=-0.006;exitDx=0;exitDy=0;entryX=0.5;entryY=1;entryDx=0;entryDy=0;dashed=1;exitPerimeter=0;" parent="1" source="YecgM4xgUUCfINCVM_Nl-21" target="QxSuwZqqmujjziNGnTNI-23" edge="1">
          <mxGeometry relative="1" as="geometry">
            <Array as="points">
              <mxPoint x="891" y="779" />
              <mxPoint x="1061" y="779" />
            </Array>
          </mxGeometry>
        </mxCell>
        <mxCell id="YecgM4xgUUCfINCVM_Nl-21" value="redis-operator" style="rounded=1;whiteSpace=wrap;html=1;fillColor=#b1ddf0;strokeColor=#10739e;" parent="1" vertex="1">
          <mxGeometry x="833" y="844" width="120" height="64" as="geometry" />
        </mxCell>
        <mxCell id="YecgM4xgUUCfINCVM_Nl-28" style="edgeStyle=orthogonalEdgeStyle;rounded=0;orthogonalLoop=1;jettySize=auto;html=1;exitX=0.5;exitY=1;exitDx=0;exitDy=0;dashed=1;" parent="1" edge="1">
          <mxGeometry relative="1" as="geometry">
            <mxPoint x="785.5" y="816" as="sourcePoint" />
            <mxPoint x="785.5" y="816" as="targetPoint" />
          </mxGeometry>
        </mxCell>
        <mxCell id="CZOD9MttlhJFFi8Qf4Fr-6" value="" style="rounded=1;whiteSpace=wrap;html=1;fillColor=none;dashed=1;dashPattern=1 1;" parent="1" vertex="1">
          <mxGeometry x="660" y="570" width="122" height="161" as="geometry" />
        </mxCell>
        <mxCell id="CZOD9MttlhJFFi8Qf4Fr-7" value="slave0" style="ellipse;whiteSpace=wrap;html=1;aspect=fixed;fillColor=#008a00;fontColor=#ffffff;strokeColor=#005700;" parent="1" vertex="1">
          <mxGeometry x="690" y="578" width="56" height="56" as="geometry" />
        </mxCell>
        <mxCell id="QxSuwZqqmujjziNGnTNI-5" style="edgeStyle=orthogonalEdgeStyle;rounded=0;orthogonalLoop=1;jettySize=auto;html=1;exitX=0.5;exitY=0;exitDx=0;exitDy=0;entryX=0.5;entryY=1;entryDx=0;entryDy=0;dashed=1;" parent="1" source="CZOD9MttlhJFFi8Qf4Fr-8" target="CZOD9MttlhJFFi8Qf4Fr-7" edge="1">
          <mxGeometry relative="1" as="geometry" />
        </mxCell>
        <mxCell id="CZOD9MttlhJFFi8Qf4Fr-8" value="&lt;p style=&quot;line-height: 150%;&quot;&gt;redis exporter&lt;/p&gt;" style="ellipse;whiteSpace=wrap;html=1;aspect=fixed;fillColor=#fff2cc;strokeColor=#d6b656;" parent="1" vertex="1">
          <mxGeometry x="691.5" y="674" width="53" height="53" as="geometry" />
        </mxCell>
        <mxCell id="QxSuwZqqmujjziNGnTNI-6" value="scrape" style="text;html=1;strokeColor=none;fillColor=none;align=center;verticalAlign=middle;whiteSpace=wrap;rounded=0;" parent="1" vertex="1">
          <mxGeometry x="721" y="648" width="37" height="16" as="geometry" />
        </mxCell>
        <mxCell id="QxSuwZqqmujjziNGnTNI-7" value="pod0-1" style="text;html=1;strokeColor=none;fillColor=none;align=center;verticalAlign=middle;whiteSpace=wrap;rounded=0;" parent="1" vertex="1">
          <mxGeometry x="737" y="570" width="41" height="16" as="geometry" />
        </mxCell>
        <mxCell id="QxSuwZqqmujjziNGnTNI-14" value="" style="rounded=1;whiteSpace=wrap;html=1;fillColor=none;dashed=1;dashPattern=1 1;" parent="1" vertex="1">
          <mxGeometry x="832" y="570" width="122" height="161" as="geometry" />
        </mxCell>
        <mxCell id="QxSuwZqqmujjziNGnTNI-15" value="slave1" style="ellipse;whiteSpace=wrap;html=1;aspect=fixed;fillColor=#008a00;fontColor=#ffffff;strokeColor=#005700;" parent="1" vertex="1">
          <mxGeometry x="862" y="578" width="56" height="56" as="geometry" />
        </mxCell>
        <mxCell id="QxSuwZqqmujjziNGnTNI-16" style="edgeStyle=orthogonalEdgeStyle;rounded=0;orthogonalLoop=1;jettySize=auto;html=1;exitX=0.5;exitY=0;exitDx=0;exitDy=0;entryX=0.5;entryY=1;entryDx=0;entryDy=0;dashed=1;" parent="1" source="QxSuwZqqmujjziNGnTNI-17" target="QxSuwZqqmujjziNGnTNI-15" edge="1">
          <mxGeometry relative="1" as="geometry" />
        </mxCell>
        <mxCell id="QxSuwZqqmujjziNGnTNI-17" value="&lt;p style=&quot;line-height: 150%;&quot;&gt;redis exporter&lt;/p&gt;" style="ellipse;whiteSpace=wrap;html=1;aspect=fixed;fillColor=#fff2cc;strokeColor=#d6b656;" parent="1" vertex="1">
          <mxGeometry x="863.5" y="674" width="53" height="53" as="geometry" />
        </mxCell>
        <mxCell id="QxSuwZqqmujjziNGnTNI-18" value="scrape" style="text;html=1;strokeColor=none;fillColor=none;align=center;verticalAlign=middle;whiteSpace=wrap;rounded=0;" parent="1" vertex="1">
          <mxGeometry x="893" y="648" width="37" height="16" as="geometry" />
        </mxCell>
        <mxCell id="QxSuwZqqmujjziNGnTNI-19" value="pod1-0" style="text;html=1;strokeColor=none;fillColor=none;align=center;verticalAlign=middle;whiteSpace=wrap;rounded=0;" parent="1" vertex="1">
          <mxGeometry x="909" y="570" width="41" height="16" as="geometry" />
        </mxCell>
        <mxCell id="QxSuwZqqmujjziNGnTNI-20" value="" style="rounded=1;whiteSpace=wrap;html=1;fillColor=none;dashed=1;dashPattern=1 1;" parent="1" vertex="1">
          <mxGeometry x="1003" y="570" width="122" height="161" as="geometry" />
        </mxCell>
        <mxCell id="QxSuwZqqmujjziNGnTNI-21" value="slave2" style="ellipse;whiteSpace=wrap;html=1;aspect=fixed;fillColor=#008a00;fontColor=#ffffff;strokeColor=#005700;" parent="1" vertex="1">
          <mxGeometry x="1033" y="578" width="56" height="56" as="geometry" />
        </mxCell>
        <mxCell id="QxSuwZqqmujjziNGnTNI-22" style="edgeStyle=orthogonalEdgeStyle;rounded=0;orthogonalLoop=1;jettySize=auto;html=1;exitX=0.5;exitY=0;exitDx=0;exitDy=0;entryX=0.5;entryY=1;entryDx=0;entryDy=0;dashed=1;" parent="1" source="QxSuwZqqmujjziNGnTNI-23" target="QxSuwZqqmujjziNGnTNI-21" edge="1">
          <mxGeometry relative="1" as="geometry" />
        </mxCell>
        <mxCell id="QxSuwZqqmujjziNGnTNI-23" value="&lt;p style=&quot;line-height: 150%;&quot;&gt;redis exporter&lt;/p&gt;" style="ellipse;whiteSpace=wrap;html=1;aspect=fixed;fillColor=#fff2cc;strokeColor=#d6b656;" parent="1" vertex="1">
          <mxGeometry x="1034.5" y="674" width="53" height="53" as="geometry" />
        </mxCell>
        <mxCell id="QxSuwZqqmujjziNGnTNI-24" value="scrape" style="text;html=1;strokeColor=none;fillColor=none;align=center;verticalAlign=middle;whiteSpace=wrap;rounded=0;" parent="1" vertex="1">
          <mxGeometry x="1064" y="648" width="37" height="16" as="geometry" />
        </mxCell>
        <mxCell id="QxSuwZqqmujjziNGnTNI-25" value="pod2-1" style="text;html=1;strokeColor=none;fillColor=none;align=center;verticalAlign=middle;whiteSpace=wrap;rounded=0;" parent="1" vertex="1">
          <mxGeometry x="1080" y="570" width="41" height="16" as="geometry" />
        </mxCell>
        <mxCell id="QxSuwZqqmujjziNGnTNI-26" value="" style="rounded=1;whiteSpace=wrap;html=1;fillColor=none;dashed=1;dashPattern=1 1;" parent="1" vertex="1">
          <mxGeometry x="657" y="392" width="122" height="161" as="geometry" />
        </mxCell>
        <mxCell id="QxSuwZqqmujjziNGnTNI-27" value="master0" style="ellipse;whiteSpace=wrap;html=1;aspect=fixed;fillColor=#008a00;fontColor=#ffffff;strokeColor=#005700;" parent="1" vertex="1">
          <mxGeometry x="687" y="400" width="56" height="56" as="geometry" />
        </mxCell>
        <mxCell id="QxSuwZqqmujjziNGnTNI-28" style="edgeStyle=orthogonalEdgeStyle;rounded=0;orthogonalLoop=1;jettySize=auto;html=1;exitX=0.5;exitY=0;exitDx=0;exitDy=0;entryX=0.5;entryY=1;entryDx=0;entryDy=0;dashed=1;" parent="1" source="QxSuwZqqmujjziNGnTNI-29" target="QxSuwZqqmujjziNGnTNI-27" edge="1">
          <mxGeometry relative="1" as="geometry" />
        </mxCell>
        <mxCell id="QxSuwZqqmujjziNGnTNI-29" value="&lt;p style=&quot;line-height: 150%;&quot;&gt;redis exporter&lt;/p&gt;" style="ellipse;whiteSpace=wrap;html=1;aspect=fixed;fillColor=#fff2cc;strokeColor=#d6b656;" parent="1" vertex="1">
          <mxGeometry x="688.5" y="496" width="53" height="53" as="geometry" />
        </mxCell>
        <mxCell id="QxSuwZqqmujjziNGnTNI-30" value="scrape" style="text;html=1;strokeColor=none;fillColor=none;align=center;verticalAlign=middle;whiteSpace=wrap;rounded=0;" parent="1" vertex="1">
          <mxGeometry x="718" y="470" width="37" height="16" as="geometry" />
        </mxCell>
        <mxCell id="QxSuwZqqmujjziNGnTNI-31" value="pod0-0" style="text;html=1;strokeColor=none;fillColor=none;align=center;verticalAlign=middle;whiteSpace=wrap;rounded=0;" parent="1" vertex="1">
          <mxGeometry x="734" y="392" width="41" height="16" as="geometry" />
        </mxCell>
        <mxCell id="QxSuwZqqmujjziNGnTNI-32" value="" style="rounded=1;whiteSpace=wrap;html=1;fillColor=none;dashed=1;dashPattern=1 1;" parent="1" vertex="1">
          <mxGeometry x="829" y="392" width="122" height="161" as="geometry" />
        </mxCell>
        <mxCell id="QxSuwZqqmujjziNGnTNI-33" value="master1" style="ellipse;whiteSpace=wrap;html=1;aspect=fixed;fillColor=#008a00;fontColor=#ffffff;strokeColor=#005700;" parent="1" vertex="1">
          <mxGeometry x="859" y="400" width="56" height="56" as="geometry" />
        </mxCell>
        <mxCell id="QxSuwZqqmujjziNGnTNI-34" style="edgeStyle=orthogonalEdgeStyle;rounded=0;orthogonalLoop=1;jettySize=auto;html=1;exitX=0.5;exitY=0;exitDx=0;exitDy=0;entryX=0.5;entryY=1;entryDx=0;entryDy=0;dashed=1;" parent="1" source="QxSuwZqqmujjziNGnTNI-35" target="QxSuwZqqmujjziNGnTNI-33" edge="1">
          <mxGeometry relative="1" as="geometry" />
        </mxCell>
        <mxCell id="QxSuwZqqmujjziNGnTNI-35" value="&lt;p style=&quot;line-height: 150%;&quot;&gt;redis exporter&lt;/p&gt;" style="ellipse;whiteSpace=wrap;html=1;aspect=fixed;fillColor=#fff2cc;strokeColor=#d6b656;" parent="1" vertex="1">
          <mxGeometry x="860.5" y="496" width="53" height="53" as="geometry" />
        </mxCell>
        <mxCell id="QxSuwZqqmujjziNGnTNI-36" value="scrape" style="text;html=1;strokeColor=none;fillColor=none;align=center;verticalAlign=middle;whiteSpace=wrap;rounded=0;" parent="1" vertex="1">
          <mxGeometry x="890" y="470" width="37" height="16" as="geometry" />
        </mxCell>
        <mxCell id="QxSuwZqqmujjziNGnTNI-37" value="pod1-1" style="text;html=1;strokeColor=none;fillColor=none;align=center;verticalAlign=middle;whiteSpace=wrap;rounded=0;" parent="1" vertex="1">
          <mxGeometry x="906" y="392" width="41" height="16" as="geometry" />
        </mxCell>
        <mxCell id="QxSuwZqqmujjziNGnTNI-39" value="master2" style="ellipse;whiteSpace=wrap;html=1;aspect=fixed;fillColor=#008a00;fontColor=#ffffff;strokeColor=#005700;" parent="1" vertex="1">
          <mxGeometry x="1030" y="400" width="56" height="56" as="geometry" />
        </mxCell>
        <mxCell id="QxSuwZqqmujjziNGnTNI-40" style="edgeStyle=orthogonalEdgeStyle;rounded=0;orthogonalLoop=1;jettySize=auto;html=1;exitX=0.5;exitY=0;exitDx=0;exitDy=0;entryX=0.5;entryY=1;entryDx=0;entryDy=0;dashed=1;" parent="1" source="QxSuwZqqmujjziNGnTNI-41" target="QxSuwZqqmujjziNGnTNI-39" edge="1">
          <mxGeometry relative="1" as="geometry" />
        </mxCell>
        <mxCell id="QxSuwZqqmujjziNGnTNI-41" value="&lt;p style=&quot;line-height: 150%;&quot;&gt;redis exporter&lt;/p&gt;" style="ellipse;whiteSpace=wrap;html=1;aspect=fixed;fillColor=#fff2cc;strokeColor=#d6b656;" parent="1" vertex="1">
          <mxGeometry x="1031.5" y="496" width="53" height="53" as="geometry" />
        </mxCell>
        <mxCell id="QxSuwZqqmujjziNGnTNI-42" value="scrape" style="text;html=1;strokeColor=none;fillColor=none;align=center;verticalAlign=middle;whiteSpace=wrap;rounded=0;" parent="1" vertex="1">
          <mxGeometry x="1061" y="470" width="37" height="16" as="geometry" />
        </mxCell>
        <mxCell id="QxSuwZqqmujjziNGnTNI-43" value="pod2-0" style="text;html=1;strokeColor=none;fillColor=none;align=center;verticalAlign=middle;whiteSpace=wrap;rounded=0;" parent="1" vertex="1">
          <mxGeometry x="1077" y="392" width="41" height="16" as="geometry" />
        </mxCell>
        <mxCell id="QxSuwZqqmujjziNGnTNI-44" value="redis集群" style="text;html=1;strokeColor=none;fillColor=none;align=center;verticalAlign=middle;whiteSpace=wrap;rounded=0;dashed=1;dashPattern=1 1;" parent="1" vertex="1">
          <mxGeometry x="1074" y="362" width="60" height="30" as="geometry" />
        </mxCell>
        <mxCell id="QxSuwZqqmujjziNGnTNI-47" style="edgeStyle=orthogonalEdgeStyle;rounded=0;orthogonalLoop=1;jettySize=auto;html=1;exitX=0.38;exitY=1.007;exitDx=0;exitDy=0;entryX=0;entryY=0.5;entryDx=0;entryDy=0;dashed=1;exitPerimeter=0;" parent="1" source="QxSuwZqqmujjziNGnTNI-45" target="QxSuwZqqmujjziNGnTNI-29" edge="1">
          <mxGeometry relative="1" as="geometry">
            <Array as="points">
              <mxPoint x="807" y="283" />
              <mxPoint x="642" y="283" />
              <mxPoint x="642" y="523" />
            </Array>
          </mxGeometry>
        </mxCell>
        <mxCell id="QxSuwZqqmujjziNGnTNI-48" style="edgeStyle=orthogonalEdgeStyle;rounded=0;orthogonalLoop=1;jettySize=auto;html=1;exitX=0.383;exitY=1;exitDx=0;exitDy=0;entryX=0;entryY=0.5;entryDx=0;entryDy=0;dashed=1;exitPerimeter=0;" parent="1" source="QxSuwZqqmujjziNGnTNI-45" target="CZOD9MttlhJFFi8Qf4Fr-8" edge="1">
          <mxGeometry relative="1" as="geometry">
            <Array as="points">
              <mxPoint x="807" y="283" />
              <mxPoint x="642" y="283" />
              <mxPoint x="642" y="701" />
            </Array>
          </mxGeometry>
        </mxCell>
        <mxCell id="QxSuwZqqmujjziNGnTNI-50" style="edgeStyle=orthogonalEdgeStyle;rounded=0;orthogonalLoop=1;jettySize=auto;html=1;exitX=0.383;exitY=1.001;exitDx=0;exitDy=0;entryX=0;entryY=0.5;entryDx=0;entryDy=0;dashed=1;exitPerimeter=0;" parent="1" source="QxSuwZqqmujjziNGnTNI-45" target="QxSuwZqqmujjziNGnTNI-17" edge="1">
          <mxGeometry relative="1" as="geometry">
            <Array as="points">
              <mxPoint x="807" y="700" />
            </Array>
          </mxGeometry>
        </mxCell>
        <mxCell id="QxSuwZqqmujjziNGnTNI-51" style="edgeStyle=orthogonalEdgeStyle;rounded=0;orthogonalLoop=1;jettySize=auto;html=1;entryX=0;entryY=0.5;entryDx=0;entryDy=0;dashed=1;" parent="1" target="QxSuwZqqmujjziNGnTNI-35" edge="1">
          <mxGeometry relative="1" as="geometry">
            <Array as="points">
              <mxPoint x="807" y="239" />
              <mxPoint x="807" y="522" />
            </Array>
            <mxPoint x="807" y="240" as="sourcePoint" />
          </mxGeometry>
        </mxCell>
        <mxCell id="QxSuwZqqmujjziNGnTNI-53" style="edgeStyle=orthogonalEdgeStyle;rounded=0;orthogonalLoop=1;jettySize=auto;html=1;exitX=0.386;exitY=1.001;exitDx=0;exitDy=0;entryX=0;entryY=0.5;entryDx=0;entryDy=0;dashed=1;exitPerimeter=0;" parent="1" source="QxSuwZqqmujjziNGnTNI-45" target="QxSuwZqqmujjziNGnTNI-41" edge="1">
          <mxGeometry relative="1" as="geometry">
            <Array as="points">
              <mxPoint x="807" y="283" />
              <mxPoint x="974" y="283" />
              <mxPoint x="974" y="522" />
            </Array>
          </mxGeometry>
        </mxCell>
        <mxCell id="QxSuwZqqmujjziNGnTNI-54" style="edgeStyle=orthogonalEdgeStyle;rounded=0;orthogonalLoop=1;jettySize=auto;html=1;exitX=0.386;exitY=1.001;exitDx=0;exitDy=0;entryX=0;entryY=0.5;entryDx=0;entryDy=0;dashed=1;exitPerimeter=0;" parent="1" source="QxSuwZqqmujjziNGnTNI-45" target="QxSuwZqqmujjziNGnTNI-23" edge="1">
          <mxGeometry relative="1" as="geometry">
            <Array as="points">
              <mxPoint x="807" y="283" />
              <mxPoint x="974" y="283" />
              <mxPoint x="974" y="700" />
            </Array>
          </mxGeometry>
        </mxCell>
        <mxCell id="QxSuwZqqmujjziNGnTNI-55" style="edgeStyle=orthogonalEdgeStyle;rounded=0;orthogonalLoop=1;jettySize=auto;html=1;exitX=1;exitY=0.5;exitDx=0;exitDy=0;entryX=0;entryY=0.5;entryDx=0;entryDy=0;dashed=1;" parent="1" source="QxSuwZqqmujjziNGnTNI-45" target="QxSuwZqqmujjziNGnTNI-46" edge="1">
          <mxGeometry relative="1" as="geometry">
            <Array as="points">
              <mxPoint x="909" y="209" />
              <mxPoint x="909" y="209" />
            </Array>
          </mxGeometry>
        </mxCell>
        <mxCell id="QxSuwZqqmujjziNGnTNI-87" style="edgeStyle=orthogonalEdgeStyle;rounded=0;orthogonalLoop=1;jettySize=auto;html=1;exitX=0;exitY=0.25;exitDx=0;exitDy=0;entryX=0;entryY=0.3333333333333333;entryDx=0;entryDy=0;entryPerimeter=0;dashed=1;" parent="1" target="QxSuwZqqmujjziNGnTNI-83" edge="1">
          <mxGeometry relative="1" as="geometry">
            <mxPoint x="761" y="227" as="sourcePoint" />
            <Array as="points">
              <mxPoint x="761" y="212" />
              <mxPoint x="642" y="212" />
              <mxPoint x="642" y="78" />
            </Array>
          </mxGeometry>
        </mxCell>
        <mxCell id="QxSuwZqqmujjziNGnTNI-45" value="Prometheus" style="rounded=1;whiteSpace=wrap;html=1;fillColor=#fff2cc;strokeColor=#d6b656;" parent="1" vertex="1">
          <mxGeometry x="761" y="179" width="120" height="60" as="geometry" />
        </mxCell>
        <mxCell id="QxSuwZqqmujjziNGnTNI-46" value="Grafana" style="rounded=1;whiteSpace=wrap;html=1;fillColor=#fff2cc;strokeColor=#d6b656;" parent="1" vertex="1">
          <mxGeometry x="1084.5" y="179" width="120" height="60" as="geometry" />
        </mxCell>
        <mxCell id="QxSuwZqqmujjziNGnTNI-57" value="&lt;p style=&quot;line-height: 150%;&quot;&gt;scrape&lt;br&gt;metrics&lt;/p&gt;" style="text;html=1;strokeColor=none;fillColor=none;align=center;verticalAlign=middle;whiteSpace=wrap;rounded=0;" parent="1" vertex="1">
          <mxGeometry x="810" y="250" width="49" height="20" as="geometry" />
        </mxCell>
        <mxCell id="QxSuwZqqmujjziNGnTNI-59" value="&lt;p style=&quot;line-height: 150%;&quot;&gt;visualize&lt;br&gt;metrics&lt;/p&gt;" style="text;html=1;strokeColor=none;fillColor=none;align=center;verticalAlign=middle;whiteSpace=wrap;rounded=0;" parent="1" vertex="1">
          <mxGeometry x="985.5" y="180" width="49" height="20" as="geometry" />
        </mxCell>
        <mxCell id="QxSuwZqqmujjziNGnTNI-81" value="&lt;p style=&quot;line-height: 150%;&quot;&gt;call&amp;nbsp;big key scan&lt;br&gt;&amp;nbsp;schedully&lt;/p&gt;" style="text;html=1;strokeColor=none;fillColor=none;align=center;verticalAlign=middle;whiteSpace=wrap;rounded=0;" parent="1" vertex="1">
          <mxGeometry x="898" y="804" width="56.5" height="18" as="geometry" />
        </mxCell>
        <mxCell id="QxSuwZqqmujjziNGnTNI-85" style="edgeStyle=orthogonalEdgeStyle;rounded=0;orthogonalLoop=1;jettySize=auto;html=1;exitX=1;exitY=0.3333333333333333;exitDx=0;exitDy=0;exitPerimeter=0;dashed=1;entryX=0.541;entryY=0.003;entryDx=0;entryDy=0;entryPerimeter=0;" parent="1" source="QxSuwZqqmujjziNGnTNI-83" edge="1" target="QxSuwZqqmujjziNGnTNI-46">
          <mxGeometry relative="1" as="geometry">
            <mxPoint x="1146" y="189" as="targetPoint" />
          </mxGeometry>
        </mxCell>
        <mxCell id="QxSuwZqqmujjziNGnTNI-83" value="admin" style="shape=umlActor;verticalLabelPosition=bottom;verticalAlign=top;html=1;outlineConnect=0;" parent="1" vertex="1">
          <mxGeometry x="906" y="58" width="24" height="60" as="geometry" />
        </mxCell>
        <mxCell id="QxSuwZqqmujjziNGnTNI-86" value="&lt;p style=&quot;line-height: 150%;&quot;&gt;query&lt;br&gt;metrics&lt;/p&gt;" style="text;html=1;strokeColor=none;fillColor=none;align=center;verticalAlign=middle;whiteSpace=wrap;rounded=0;" parent="1" vertex="1">
          <mxGeometry x="1146" y="96" width="60" height="30" as="geometry" />
        </mxCell>
        <mxCell id="QxSuwZqqmujjziNGnTNI-88" value="alert to user" style="text;html=1;strokeColor=none;fillColor=none;align=center;verticalAlign=middle;whiteSpace=wrap;rounded=0;" parent="1" vertex="1">
          <mxGeometry x="651" y="79" width="70" height="30" as="geometry" />
        </mxCell>
      </root>
    </mxGraphModel>
  </diagram>
</mxfile>
